<svg xmlns="http://www.w3.org/2000/svg" width="97.352" height="10.095" viewBox="0 0 97.352 10.095">
  <path id="Path_12" data-name="Path 12" d="M147.056,441.629l4.1-3.237a6.974,6.974,0,0,1,8.238,0l5.134,4.051a8.036,8.036,0,0,0,9.491,0l5.16-4.071a6.368,6.368,0,0,1,7.521,0l5.009,3.952a7.592,7.592,0,0,0,8.967,0l4.709-3.715a6.824,6.824,0,0,1,8.059,0l5.175,4.084a7.5,7.5,0,0,0,8.859,0l5.208-4.11a5.314,5.314,0,0,1,6.278,0l3.583,2.827" transform="translate(-146.127 -435.546)" fill="none" stroke="#CCDB2A" stroke-miterlimit="10" stroke-width="3"/>
</svg>
